<svg version="1.2" xmlns="http://www.w3.org/2000/svg" viewBox="0 0 160 160" width="160" height="160">
	<title>logo-svg</title>
	<style>
		.s0 { fill: #ef4323 } 
	</style>
	<g id="Layer-1">
		<path id="Layer" fill-rule="evenodd" class="s0" d="m51.2 27.6c1-1.6 3-2 4.6-1.1 1.6 1 2 3.1 1.1 4.6l-1 1.7c-1 1.5-3.1 2-4.7 1-1.5-0.9-2-3-1-4.6zm65.3 93.1c-1 1.5-3 2-4.6 1.1-1.6-1-2.1-3.1-1.1-4.7 10-16 2.4-38.8-16.8-50.7l-7.6-4.8c-22.4-13.9-30.9-40.8-19-60 1-1.6 3-2 4.6-1.1 1.6 1 2 3.1 1.1 4.6-10 16.1-2.5 38.8 16.8 50.8l7.6 4.8c22.4 13.9 30.9 40.8 19 60zm-23 36.9c-1 1.6-3 2.1-4.6 1.1-1.6-1-2.1-3.1-1.1-4.6 10-16 2.4-38.8-16.8-50.8l-7.7-4.8c-22.3-13.9-30.8-40.8-18.9-60 1-1.5 3-2 4.6-1 1.6 1 2 3 1.1 4.6-10 16-2.5 38.8 16.8 50.8l7.6 4.7c22.4 14 30.9 40.9 19 60zm-19.5-98c1.5 1 2 3.1 1 4.7l-8 12.8c-1 1.6-3 2.1-4.6 1.1-1.6-1-2-3.1-1.1-4.6l8.1-12.9c0.9-1.6 3-2 4.6-1.1zm13.7 8.4c1.5 1 2 3.1 1 4.6l-10.9 17.5c-0.9 1.6-3 2.1-4.6 1.1-1.5-1-2-3.1-1-4.6l10.8-17.5c1-1.6 3.1-2 4.7-1.1zm10.8 13c1.5 1 2 3.1 1 4.6l-8 12.9c-0.9 1.6-3 2.1-4.6 1.1-1.5-1-2-3.1-1.1-4.6l8.1-12.9c0.9-1.6 3-2 4.6-1.1zm7.4 18.5c1.6 1 2 3 1.1 4.6l-4.7 7.5c-1 1.6-3 2-4.6 1.1-1.6-1-2.1-3.1-1.1-4.6l4.7-7.5c1-1.6 3-2.1 4.6-1.1zm3 26.3c1.5 1 2 3.1 1 4.7l-1 1.6c-1 1.6-3 2-4.6 1.1-1.6-1-2-3.1-1.1-4.6l1-1.7c1-1.5 3.1-2 4.7-1.1zm-45.7-79.2c1.6 0.9 2 3 1.1 4.6l-4.7 7.5c-1 1.5-3 2-4.6 1-1.6-0.9-2.1-3-1.1-4.6l4.7-7.5c1-1.5 3-2 4.6-1z"/>
		<path id="Layer" class="s0" d="m108.9 125.8c1.5 1 2 3.1 1 4.6l-1 1.7c-1 1.5-3 2-4.6 1-1.6-0.9-2-3-1.1-4.6l1.1-1.6c0.9-1.6 3-2.1 4.6-1.1z"/>
		<path id="Layer" class="s0" d="m99.6 85.6l-8.1 12.9c-0.9 1.6-3 2-4.6 1.1-1.5-1-2-3.1-1-4.6l8-12.9c0.9-1.6 3-2.1 4.6-1.1 1.6 1 2 3 1.1 4.6z"/>
		<path id="Layer" class="s0" d="m107 104.1l-4.7 7.5c-1 1.5-3 2-4.6 1-1.6-0.9-2-3-1.1-4.6l4.7-7.5c1-1.5 3-2 4.6-1 1.6 0.9 2.1 3 1.1 4.6z"/>
		<path id="Layer" class="s0" d="m88.9 158.7c-1.6-1-2-3.1-1.1-4.6 10-16.1 2.5-38.8-16.8-50.8l-7.6-4.8c-22.4-13.9-30.9-40.8-19-60 1-1.5 3-2 4.6-1.1 1.6 1 2.1 3.1 1.1 4.7-10 16-2.4 38.7 16.8 50.7l7.6 4.8c22.4 13.9 30.9 40.8 19 60-1 1.6-3 2-4.6 1.1z"/>
		<path id="Layer" class="s0" d="m55.8 26.5c1.6 1 2 3.1 1.1 4.6l-1 1.7c-1 1.5-3.1 2-4.7 1-1.5-0.9-2-3-1-4.6l1-1.6c1-1.6 3-2 4.6-1.1z"/>
		<path id="Layer" class="s0" d="m111.9 121.7c-1.6-1-2-3-1.1-4.6 10-16 2.5-38.8-16.8-50.8l-7.6-4.7c-22.4-14-30.9-40.9-19-60 1-1.6 3-2.1 4.6-1.1 1.6 1 2.1 3.1 1.1 4.6-10 16-2.4 38.8 16.8 50.8l7.6 4.8c22.4 13.9 30.9 40.8 19 60-1 1.5-3 2-4.6 1z"/>
		<path id="Layer" class="s0" d="m64.3 51.1l-4.7 7.5c-1 1.6-3 2.1-4.6 1.1-1.6-1-2.1-3-1.1-4.6l4.7-7.5c1-1.6 3-2.1 4.6-1.1 1.6 1 2.1 3.1 1.1 4.6z"/>
		<path id="Layer" class="s0" d="m88.7 72.6l-10.8 17.5c-1 1.6-3.1 2-4.7 1.1-1.5-1-2-3.1-1-4.6l10.9-17.5c0.9-1.6 3-2.1 4.6-1.1 1.5 1 2 3.1 1 4.6z"/>
		<path id="Layer" class="s0" d="m75 64.2l-8 12.9c-0.9 1.6-3 2-4.6 1.1-1.5-1-2-3.1-1-4.6l8-12.9c0.9-1.6 3-2.1 4.6-1.1 1.5 1 2 3.1 1 4.6z"/>
	</g>
</svg>